<?xml version="1.0" encoding="utf-8"?>
<!-- Generator: Adobe Illustrator 15.0.0, SVG Export Plug-In . SVG Version: 6.00 Build 0)  -->
<!DOCTYPE svg PUBLIC "-//W3C//DTD SVG 1.1//EN" "http://www.w3.org/Graphics/SVG/1.1/DTD/svg11.dtd">
<svg version="1.1" id="Layer_1" xmlns="http://www.w3.org/2000/svg" xmlns:xlink="http://www.w3.org/1999/xlink" x="0px" y="0px"
	 width="411px" height="263px" viewBox="0 0 411 263" enable-background="new 0 0 411 263" xml:space="preserve">
<g id="layer2">
	<path fill="#252525" d="M390.75,0.2c0.5,0.2,2.7,0.6,4.8,1c4.9,0.8,12.101,7.2,13.9,12.3c1,3,1.3,26.5,1.3,116.7
		c0,62.101-0.4,114.7-0.8,116.8c-1,4.6-6.9,11.4-11.7,13.5c-2.3,1-8.2,1.7-17.8,2l-14.2,0.5V131.3V-0.3l11.7,0.1
		C384.45-0.2,390.15,0,390.75,0.2z"/>
	<path fill="#252525" d="M357.25,131.2v131.5h-5.5h-5.5V131.2V-0.3h5.5h5.5V131.2z"/>
	<path fill="#252525" d="M337.25,131.2v131.5h-5.5h-5.5V131.2V-0.3h5.5h5.5V131.2z"/>
	<path fill="#252525" d="M317.25,131.2v131.5l-137.3-0.2c-154.2-0.3-140.8,0.4-148.4-8.199c-6.1-6.9-6.399-9.2-6.1-41.601l0.3-28.5
		l60-0.5l60-0.5l5.5-3.1c6-3.3,11.2-9.9,13-16.2c1.3-4.9,1.3-57.5,0-62.4c-1.8-6.3-7-12.899-13-16.2l-5.5-3.1l-60-0.5l-60-0.5
		l-0.3-30c-0.3-34,0-36.2,6.1-43.1c7.601-8.601-5.8-7.9,148.4-8.2l137.3-0.2V131.2z"/>
	<path fill="#252525" d="M138.65,91.2c5.399,1.9,10.6,6.3,14.1,12l3,4.8v24.2v24.2l-3,4.8c-3.6,5.8-10.1,11-15.5,12.5
		c-2.6,0.7-23.4,1-61.8,0.8l-57.9-0.3l-4.8-3c-10.9-6.8-12.5-11.7-12.5-39s1.6-32.2,12.5-39l4.8-3L76.15,90
		C124.25,89.8,135.45,90,138.65,91.2z M105.95,120c-13.3,10.101-5.2,31.101,11.399,29.5c16.301-1.6,20.4-23.7,5.7-31.2
		C118.25,115.9,110.35,116.601,105.95,120z"/>
</g>
</svg>
